<mxfile host="app.diagrams.net" modified="2020-11-04T13:43:44.122Z" agent="5.0 (Windows)" etag="78oi-Fz-WyRsE5Yfmy3B" version="13.8.8" type="github">
  <diagram id="SbvSPV5wl59pVkIzQaxI" name="Page-1">
    <mxGraphModel dx="976" dy="586" grid="1" gridSize="10" guides="1" tooltips="1" connect="1" arrows="1" fold="1" page="1" pageScale="1" pageWidth="850" pageHeight="1100" math="0" shadow="0">
      <root>
        <mxCell id="0" />
        <mxCell id="1" parent="0" />
        <mxCell id="BSNAUexg20AXims5T4rI-10" value="" style="rounded=0;whiteSpace=wrap;html=1;" vertex="1" parent="1">
          <mxGeometry x="200" width="450" height="630" as="geometry" />
        </mxCell>
        <mxCell id="83U9YLY0niQRXOLyUrli-1" value="Inventory manger" style="shape=umlActor;verticalLabelPosition=bottom;verticalAlign=top;html=1;outlineConnect=0;" parent="1" vertex="1">
          <mxGeometry x="120" y="90" width="30" height="60" as="geometry" />
        </mxCell>
        <mxCell id="83U9YLY0niQRXOLyUrli-2" value="Notification Service" style="shape=umlActor;verticalLabelPosition=bottom;verticalAlign=top;html=1;outlineConnect=0;" parent="1" vertex="1">
          <mxGeometry x="720" y="110" width="30" height="60" as="geometry" />
        </mxCell>
        <mxCell id="83U9YLY0niQRXOLyUrli-3" value="Admin" style="shape=umlActor;verticalLabelPosition=bottom;verticalAlign=top;html=1;outlineConnect=0;" parent="1" vertex="1">
          <mxGeometry x="95" y="500" width="30" height="60" as="geometry" />
        </mxCell>
        <mxCell id="83U9YLY0niQRXOLyUrli-4" value="Supplier" style="shape=umlActor;verticalLabelPosition=bottom;verticalAlign=top;html=1;outlineConnect=0;" parent="1" vertex="1">
          <mxGeometry x="720" y="490" width="30" height="60" as="geometry" />
        </mxCell>
        <mxCell id="83U9YLY0niQRXOLyUrli-6" value="Login/Logout" style="ellipse;whiteSpace=wrap;html=1;" parent="1" vertex="1">
          <mxGeometry x="420" y="340" width="140" height="70" as="geometry" />
        </mxCell>
        <mxCell id="83U9YLY0niQRXOLyUrli-8" value="Raise Invoice" style="ellipse;whiteSpace=wrap;html=1;" parent="1" vertex="1">
          <mxGeometry x="420" y="500" width="140" height="70" as="geometry" />
        </mxCell>
        <mxCell id="83U9YLY0niQRXOLyUrli-9" value="Place order" style="ellipse;whiteSpace=wrap;html=1;" parent="1" vertex="1">
          <mxGeometry x="420" y="160" width="140" height="70" as="geometry" />
        </mxCell>
        <mxCell id="83U9YLY0niQRXOLyUrli-10" value="Pay supplier" style="ellipse;whiteSpace=wrap;html=1;" parent="1" vertex="1">
          <mxGeometry x="420" y="420" width="140" height="70" as="geometry" />
        </mxCell>
        <mxCell id="83U9YLY0niQRXOLyUrli-12" value="send notification" style="ellipse;whiteSpace=wrap;html=1;" parent="1" vertex="1">
          <mxGeometry x="420" y="70" width="140" height="70" as="geometry" />
        </mxCell>
        <mxCell id="BSNAUexg20AXims5T4rI-1" value="" style="edgeStyle=none;html=1;endArrow=none;verticalAlign=bottom;exitX=0.979;exitY=0.729;exitDx=0;exitDy=0;exitPerimeter=0;" edge="1" parent="1" source="83U9YLY0niQRXOLyUrli-12" target="83U9YLY0niQRXOLyUrli-2">
          <mxGeometry width="160" relative="1" as="geometry">
            <mxPoint x="415" y="140" as="sourcePoint" />
            <mxPoint x="545" y="140" as="targetPoint" />
          </mxGeometry>
        </mxCell>
        <mxCell id="BSNAUexg20AXims5T4rI-2" value="" style="edgeStyle=none;html=1;endArrow=none;verticalAlign=bottom;" edge="1" parent="1" target="83U9YLY0niQRXOLyUrli-9">
          <mxGeometry width="160" relative="1" as="geometry">
            <mxPoint x="155" y="130" as="sourcePoint" />
            <mxPoint x="285" y="210" as="targetPoint" />
          </mxGeometry>
        </mxCell>
        <mxCell id="BSNAUexg20AXims5T4rI-3" value="" style="edgeStyle=none;html=1;endArrow=none;verticalAlign=bottom;entryX=0;entryY=0;entryDx=0;entryDy=0;" edge="1" parent="1">
          <mxGeometry width="160" relative="1" as="geometry">
            <mxPoint x="155" y="130" as="sourcePoint" />
            <mxPoint x="440.5025253169417" y="260.25126265847086" as="targetPoint" />
          </mxGeometry>
        </mxCell>
        <mxCell id="BSNAUexg20AXims5T4rI-4" value="" style="edgeStyle=none;html=1;endArrow=none;verticalAlign=bottom;entryX=0.05;entryY=0.243;entryDx=0;entryDy=0;entryPerimeter=0;" edge="1" parent="1" target="83U9YLY0niQRXOLyUrli-6">
          <mxGeometry width="160" relative="1" as="geometry">
            <mxPoint x="155" y="130" as="sourcePoint" />
            <mxPoint x="325" y="300" as="targetPoint" />
          </mxGeometry>
        </mxCell>
        <mxCell id="BSNAUexg20AXims5T4rI-5" value="" style="edgeStyle=none;html=1;endArrow=none;verticalAlign=bottom;entryX=0.064;entryY=0.786;entryDx=0;entryDy=0;entryPerimeter=0;" edge="1" parent="1" target="83U9YLY0niQRXOLyUrli-10">
          <mxGeometry width="160" relative="1" as="geometry">
            <mxPoint x="135" y="540" as="sourcePoint" />
            <mxPoint x="275" y="490" as="targetPoint" />
          </mxGeometry>
        </mxCell>
        <mxCell id="BSNAUexg20AXims5T4rI-6" value="" style="edgeStyle=none;html=1;endArrow=none;verticalAlign=bottom;entryX=0.029;entryY=0.729;entryDx=0;entryDy=0;entryPerimeter=0;" edge="1" parent="1" target="83U9YLY0niQRXOLyUrli-6">
          <mxGeometry width="160" relative="1" as="geometry">
            <mxPoint x="135" y="540" as="sourcePoint" />
            <mxPoint x="285" y="420" as="targetPoint" />
          </mxGeometry>
        </mxCell>
        <mxCell id="BSNAUexg20AXims5T4rI-7" value="" style="edgeStyle=none;html=1;endArrow=none;verticalAlign=bottom;exitX=0.993;exitY=0.657;exitDx=0;exitDy=0;exitPerimeter=0;" edge="1" parent="1" source="83U9YLY0niQRXOLyUrli-6">
          <mxGeometry width="160" relative="1" as="geometry">
            <mxPoint x="570" y="400" as="sourcePoint" />
            <mxPoint x="710" y="520" as="targetPoint" />
          </mxGeometry>
        </mxCell>
        <mxCell id="BSNAUexg20AXims5T4rI-8" value="" style="edgeStyle=none;html=1;endArrow=none;verticalAlign=bottom;" edge="1" parent="1">
          <mxGeometry width="160" relative="1" as="geometry">
            <mxPoint x="560" y="540" as="sourcePoint" />
            <mxPoint x="710" y="520" as="targetPoint" />
          </mxGeometry>
        </mxCell>
        <mxCell id="BSNAUexg20AXims5T4rI-11" value="&lt;font style=&quot;font-size: 14px&quot;&gt;&lt;b&gt;Inventory Management System&lt;/b&gt;&lt;/font&gt;" style="text;html=1;strokeColor=none;fillColor=none;align=center;verticalAlign=middle;whiteSpace=wrap;rounded=0;" vertex="1" parent="1">
          <mxGeometry x="305" y="10" width="240" height="40" as="geometry" />
        </mxCell>
        <mxCell id="BSNAUexg20AXims5T4rI-12" value="&amp;lt;&amp;lt;include&amp;gt;&amp;gt;" style="edgeStyle=none;html=1;endArrow=open;verticalAlign=bottom;dashed=1;labelBackgroundColor=none;exitX=0;exitY=0;exitDx=0;exitDy=0;entryX=0.958;entryY=0.717;entryDx=0;entryDy=0;entryPerimeter=0;" edge="1" parent="1" source="83U9YLY0niQRXOLyUrli-10" target="BSNAUexg20AXims5T4rI-13">
          <mxGeometry x="0.2479" y="-2" width="160" relative="1" as="geometry">
            <mxPoint x="290" y="430" as="sourcePoint" />
            <mxPoint x="450" y="430" as="targetPoint" />
            <mxPoint as="offset" />
          </mxGeometry>
        </mxCell>
        <mxCell id="BSNAUexg20AXims5T4rI-13" value="View Invoice" style="ellipse;whiteSpace=wrap;html=1;" vertex="1" parent="1">
          <mxGeometry x="240" y="360" width="120" height="60" as="geometry" />
        </mxCell>
        <mxCell id="BSNAUexg20AXims5T4rI-15" value="" style="edgeStyle=none;html=1;endArrow=none;verticalAlign=bottom;entryX=0.083;entryY=0.833;entryDx=0;entryDy=0;entryPerimeter=0;" edge="1" parent="1" target="BSNAUexg20AXims5T4rI-13">
          <mxGeometry width="160" relative="1" as="geometry">
            <mxPoint x="140" y="540" as="sourcePoint" />
            <mxPoint x="250" y="430" as="targetPoint" />
          </mxGeometry>
        </mxCell>
        <mxCell id="BSNAUexg20AXims5T4rI-16" value="check Qulity" style="ellipse;whiteSpace=wrap;html=1;" vertex="1" parent="1">
          <mxGeometry x="220" y="280" width="140" height="70" as="geometry" />
        </mxCell>
        <mxCell id="BSNAUexg20AXims5T4rI-17" value="&amp;lt;&amp;lt;extend&amp;gt;&amp;gt;" style="edgeStyle=none;html=1;startArrow=open;endArrow=none;startSize=12;verticalAlign=bottom;dashed=1;labelBackgroundColor=none;entryX=0.986;entryY=0.7;entryDx=0;entryDy=0;exitX=0.031;exitY=0.563;exitDx=0;exitDy=0;entryPerimeter=0;exitPerimeter=0;" edge="1" parent="1" source="BSNAUexg20AXims5T4rI-19" target="BSNAUexg20AXims5T4rI-16">
          <mxGeometry width="160" relative="1" as="geometry">
            <mxPoint x="420" y="285" as="sourcePoint" />
            <mxPoint x="720" y="284.5" as="targetPoint" />
          </mxGeometry>
        </mxCell>
        <mxCell id="BSNAUexg20AXims5T4rI-18" value="" style="edgeStyle=none;html=1;endArrow=none;verticalAlign=bottom;entryX=0.443;entryY=0.029;entryDx=0;entryDy=0;entryPerimeter=0;" edge="1" parent="1" target="BSNAUexg20AXims5T4rI-16">
          <mxGeometry width="160" relative="1" as="geometry">
            <mxPoint x="160" y="130" as="sourcePoint" />
            <mxPoint x="150" y="240" as="targetPoint" />
          </mxGeometry>
        </mxCell>
        <mxCell id="BSNAUexg20AXims5T4rI-19" value="&lt;br&gt;extension points&lt;br&gt;check stock, check quality" style="html=1;shape=mxgraph.sysml.useCaseExtPt;whiteSpace=wrap;align=center;" vertex="1" parent="1">
          <mxGeometry x="425" y="240" width="160" height="80" as="geometry" />
        </mxCell>
        <mxCell id="BSNAUexg20AXims5T4rI-20" value="Manage Inventory" style="resizable=0;html=1;verticalAlign=middle;align=center;labelBackgroundColor=none;fontStyle=1;" connectable="0" vertex="1" parent="BSNAUexg20AXims5T4rI-19">
          <mxGeometry x="80" y="17" as="geometry" />
        </mxCell>
      </root>
    </mxGraphModel>
  </diagram>
</mxfile>
